PathFileType	4	(X/Y/Z)	pose_F01_0-81.trc
DataRate	CameraRate	NumFrames	NumMarkers	Units	OrigDataRate	OrigDataStartFrame	OrigNumFrames
30	30	6	21	m	30	34	81
Frame#	Time	CHip			RHip			RKnee			RAnkle			RBigToe			RSmallToe			RHeel			LHip			LKnee			LAnkle			LBigToe			LSmallToe			LHeel			Neck			Nose			RShoulder			RElbow			RWrist			LShoulder			LElbow			LWrist			
		X1	Y1	Z1	X2	Y2	Z2	X3	Y3	Z3	X4	Y4	Z4	X5	Y5	Z5	X6	Y6	Z6	X7	Y7	Z7	X8	Y8	Z8	X9	Y9	Z9	X10	Y10	Z10	X11	Y11	Z11	X12	Y12	Z12	X13	Y13	Z13	X14	Y14	Z14	X15	Y15	Z15	X16	Y16	Z16	X17	Y17	Z17	X18	Y18	Z18	X19	Y19	Z19	X20	Y20	Z20	X21	Y21	Z21	
34	1.1333333333333333	-0.1920888597143755	1.8407862603425111	-0.6973774610595962	-0.21179653271147392	1.8351434587273137	-0.6350601390838654	-0.23283574714261315	1.7010055444004892	-0.5747498848529837													-0.16974361135196767	1.8436215584719364	-0.7649289967063797	-0.17133019602774843	1.7041539559153462	-0.727082196089777	-0.17428273727826013	1.5798363719292496	-0.7036307383483262	-0.19268595710551167	1.5389171985311914	-0.7310705266439324	-0.1784349531489429	1.551882452578196	-0.7497675198667624	-0.16910466574598904	1.5665191231668127	-0.6866329369172429	-0.18870562121229975	1.991232834267039	-0.7055951161749714	-0.18969752772603024	2.0545073520641908	-0.7527339526778023	-0.21564233042971961	1.98756112640787	-0.6208001432489935	-0.2281905334901582	1.9174012901396895	-0.658931401189531	-1.1667349328079204	1.8513532985420942	0.18654100949595817	-0.15407441705918934	1.9993987489943434	-0.7920975688144343	-1.0532133953548481	1.8565467469654502	0.02300355332658424	-0.17268666172384797	1.9742103946619376	-0.8938078147514754
35	1.1666666666666667	-0.18786531460271078	1.8391596852041847	-0.7017315952453711	-0.20760886290929098	1.836299681683729	-0.6396797369732141	-0.23161479556395567	1.700884531909185	-0.5803340464763165													-0.1676652258944187	1.8421199913246078	-0.7670360414748195	-0.17025539765416728	1.7056582529830886	-0.7244706186859179	-0.17378241927810695	1.5798606227011407	-0.70443728965899	-0.19461043998721497	1.540046107980345	-0.7295171583487388	-0.17850115694850546	1.5518719353620405	-0.7497794078036167	-0.16845135392923205	1.5658651227362035	-0.6875044671341909	-0.1845537855892299	1.9896376260897009	-0.7101792093838339	-0.18246577201572542	2.053485488638891	-0.768045858255207	-0.21436520384213958	1.9879267580910196	-0.6261628884656845	-0.22477116946289588	1.917896083078862	-0.6666148210731647	-1.1603150344205864	1.849138840474079	0.18009926501637802	-0.1496692586730588	1.9956025643934965	-0.7966549271938579	-1.0665945864937725	1.854890312979647	0.052533160357621636	-1.0542578829624263	1.8519431684088743	-0.048811685132937724
36	1.2	-0.18439227953632836	1.8415675585068656	-0.7013766323473068	-0.20523925158641398	1.838052793561136	-0.642095254684933	-0.23082386581646275	1.700410765768441	-0.5767778558826444													-0.1663986321260631	1.8449835790985163	-0.7643953984593772	-0.1702177588510356	1.7057777209744958	-0.7243901195218782	-0.17520503928112166	1.5771252131178635	-0.7064409378783428	-0.1926587334940027	1.5387583845883186	-0.7311337108455279	-0.17846279047489413	1.5518291832613973	-0.7498319254251665	-0.16913203161399556	1.563685010326755	-0.6863989168125522	-0.18454079267832252	1.9916288640736073	-0.7105879897708343	-0.1752340163054206	2.0524636252135915	-0.7833577638326118	-0.2123571632313196	1.9899765188993945	-0.628756445511342	-0.22178527511280777	1.9182275005854263	-0.6658289443048327	-1.131387703737002	1.8511049149598986	0.15078238708135894	-0.15263548911604358	1.99763264637269	-0.7977151545983602	-1.0372882396719818	1.8480623860759657	0.020346958125308522	-1.0357085527933172	1.8520600787463957	-0.06374731557733357
37	1.2333333333333334	-0.1859070083979625	1.8395104619853024	-0.6957725195126331	-0.20663654326489994	1.8359389601845195	-0.6364912069820134	-0.2300329360689698	1.6999369996276972	-0.5732216652889722													-0.16579559771472557	1.8432269052093506	-0.7610169598031264	-0.17049260890063458	1.7042843309826219	-0.7240151224828548	-0.17315324346251065	1.5813795272379942	-0.7008474225656609	-0.19457614966485046	1.539895595539375	-0.7294964181210952	-0.18066060088392982	1.5517105828006315	-0.7475478357116171	-0.17010822029234085	1.5678132250347736	-0.6818527920206806	-0.18014152149063592	1.9919547877838515	-0.7152874746880714	-0.17597299023704846	2.05344658866572	-0.7860618484162103	-0.21319814686882402	1.9900571934368096	-0.6319585057457013	-0.22406157944970798	1.9192214202848912	-0.6637078809029623	-1.1191205038487435	1.8390948219149372	0.13749535803720797	-0.14678116931145993	1.9937078885708934	-0.8074641971253372	-1.0304597597170877	1.8435667256677215	0.006339015812864868	-0.15504005532227635	1.9632117883395612	-0.9154003556161545
38	1.2666666666666666	-0.18901890085106604	1.840085100365654	-0.6964498433735125	-0.209746702249092	1.8361977313954045	-0.6372520166818427	-0.2306853349719974	1.7026122813626405	-0.5686218168818213													-0.16596645937955135	1.843742058551557	-0.7608690810242512	-0.1718044106650904	1.706831270161727	-0.7188641686205611	-0.1746271242921549	1.5761093988261805	-0.7075003647828404	-0.1926767707841909	1.538759867509855	-0.7311350122631778	-0.17853000367406413	1.5491056922794435	-0.7494914703493668	-0.17099390003195306	1.564646120395625	-0.684781975244863	-0.1801018189371633	1.9917493009433769	-0.7152664840173937	-0.1760842184667724	2.050711928728412	-0.7858154090490638	-0.21310885382613573	1.9903088997096154	-0.6318929312582949	-0.2259309713932083	1.9194040903412264	-0.6613476579868741	-1.2315213964998186	1.8337424008146441	0.24991245883498275	-0.1489183408173704	1.9966164423432513	-0.805327662627465	-0.13591434344537562	1.9426573903871183	-0.8805992561152836	-1.0468263460988765	1.8459398751252887	-0.06544493804820155
39	1.3	-0.187966106158202	1.8405911001768684	-0.6935675167010191	-0.2084476994201427	1.8383049969204897	-0.6345647064238318	-0.2304888123423524	1.7014099726819245	-0.5684579098490301													-0.16707170734413895	1.8444783478994442	-0.7557160080885057	-0.17237720164728393	1.707792948667943	-0.7223514301172078	-0.17479402233957936	1.5771701344585203	-0.7071160098321219	-0.1927706893501495	1.5389943631660135	-0.7311837194640514	-0.17852263339109614	1.5518468069890623	-0.749824476110968	-0.1709320434073125	1.5641176714584564	-0.6846282168114454	-0.18239809832828038	1.9932469118610419	-0.7132086607604478	-0.17602642613883412	2.052362242842828	-0.7861361011640282	-0.21231795271188192	1.9900894943738228	-0.6286927895775785	-0.22310799283085564	1.9187694250505172	-0.6605855552527329	-1.1427247272296566	1.8519186613954381	0.15579301715803046	-0.14908532670951366	1.9979016838986194	-0.805612788378011	-0.1393097700937978	1.9498470445195408	-0.8732206409180064	-0.15787958170894792	1.9522557880289164	-0.9146072846703537
